<?xml version="1.0" encoding="UTF-8" standalone="no"?>
<svg width="800" height="400" viewBox="0 0 800 400" xmlns="http://www.w3.org/2000/svg">
  <!-- Background -->
  <rect width="800" height="400" rx="10" fill="#F7F9FB" />
  
  <!-- Header -->
  <rect width="800" height="60" rx="5" fill="#0070D2" />
  <text x="30" y="38" font-family="Arial" font-size="20" fill="white">Financial Account Access Management</text>
  
  <!-- Tabs -->
  <rect x="30" y="80" width="120" height="40" rx="5" fill="#0070D2" />
  <text x="55" y="105" font-family="Arial" font-size="14" fill="white">Users</text>
  
  <rect x="160" y="80" width="120" height="40" rx="5" fill="#B3DBFF" />
  <text x="180" y="105" font-family="Arial" font-size="14" fill="#16325C">Accounts</text>
  
  <!-- User Cards Section -->
  <rect x="30" y="140" width="740" height="240" rx="5" fill="white" stroke="#E5E5E5" stroke-width="1" />
  
  <!-- User Card 1 -->
  <rect x="50" y="160" width="220" height="200" rx="5" fill="white" stroke="#E5E5E5" stroke-width="1" />
  <circle cx="80" cy="190" r="20" fill="#0070D2" />
  <text x="105" y="180" font-family="Arial" font-size="14" font-weight="bold" fill="#16325C">John Smith</text>
  <text x="105" y="200" font-family="Arial" font-size="12" fill="#54698D">Sales Manager</text>
  <rect x="60" y="220" width="200" height="1" fill="#E5E5E5" />
  <text x="60" y="245" font-family="Arial" font-size="12" fill="#16325C">Employee: Yes</text>
  <text x="60" y="265" font-family="Arial" font-size="12" fill="#16325C">Access Level: Mid Level</text>
  <rect x="60" y="285" width="200" height="30" rx="5" fill="#0070D2" />
  <text x="110" y="305" font-family="Arial" font-size="12" fill="white">Manage Access</text>
  
  <!-- User Card 2 -->
  <rect x="290" y="160" width="220" height="200" rx="5" fill="white" stroke="#E5E5E5" stroke-width="1" />
  <circle cx="320" cy="190" r="20" fill="#0070D2" />
  <text x="345" y="180" font-family="Arial" font-size="14" font-weight="bold" fill="#16325C">Sarah Jones</text>
  <text x="345" y="200" font-family="Arial" font-size="12" fill="#54698D">Compliance Officer</text>
  <rect x="300" y="220" width="200" height="1" fill="#E5E5E5" />
  <text x="300" y="245" font-family="Arial" font-size="12" fill="#16325C">Employee: Yes</text>
  <text x="300" y="265" font-family="Arial" font-size="12" fill="#16325C">Access Level: Admin</text>
  <rect x="300" y="285" width="200" height="30" rx="5" fill="#0070D2" />
  <text x="350" y="305" font-family="Arial" font-size="12" fill="white">Manage Access</text>
  
  <!-- User Card 3 -->
  <rect x="530" y="160" width="220" height="200" rx="5" fill="white" stroke="#E5E5E5" stroke-width="1" />
  <circle cx="560" cy="190" r="20" fill="#0070D2" />
  <text x="585" y="180" font-family="Arial" font-size="14" font-weight="bold" fill="#16325C">Michael Lee</text>
  <text x="585" y="200" font-family="Arial" font-size="12" fill="#54698D">Financial Advisor</text>
  <rect x="540" y="220" width="200" height="1" fill="#E5E5E5" />
  <text x="540" y="245" font-family="Arial" font-size="12" fill="#16325C">Employee: No</text>
  <text x="540" y="265" font-family="Arial" font-size="12" fill="#16325C">Access Level: Base</text>
  <rect x="540" y="285" width="200" height="30" rx="5" fill="#0070D2" />
  <text x="590" y="305" font-family="Arial" font-size="12" fill="white">Manage Access</text>
</svg>