<?xml version="1.0" encoding="UTF-8"?>
<svg width="800" height="500" xmlns="http://www.w3.org/2000/svg">
  <!-- Background -->
  <rect width="800" height="500" fill="#f8f9fa" rx="10" ry="10"/>
  
  <!-- Dashboard Header -->
  <rect x="50" y="30" width="700" height="70" rx="5" ry="5" fill="#0070D2"/>
  <text x="400" y="75" font-family="Arial" font-size="24" text-anchor="middle" fill="white">Financial Account Access Dashboard</text>
  
  <!-- Tab Navigation -->
  <rect x="50" y="105" width="700" height="40" rx="5" ry="5" fill="#f5f5f5" stroke="#ccc" stroke-width="1"/>
  <rect x="60" y="110" width="120" height="30" rx="3" ry="3" fill="#0070D2"/>
  <text x="120" y="130" font-family="Arial" font-size="14" text-anchor="middle" fill="white">Users</text>
  
  <rect x="190" y="110" width="120" height="30" rx="3" ry="3" fill="#f5f5f5"/>
  <text x="250" y="130" font-family="Arial" font-size="14" text-anchor="middle">Accounts</text>
  
  <rect x="320" y="110" width="120" height="30" rx="3" ry="3" fill="#f5f5f5"/>
  <text x="380" y="130" font-family="Arial" font-size="14" text-anchor="middle">Permissions</text>
  
  <rect x="450" y="110" width="120" height="30" rx="3" ry="3" fill="#f5f5f5"/>
  <text x="510" y="130" font-family="Arial" font-size="14" text-anchor="middle">Overrides</text>
  
  <!-- Filter Section -->
  <rect x="50" y="150" width="700" height="50" rx="5" ry="5" fill="white" stroke="#ccc" stroke-width="1"/>
  <text x="70" y="180" font-family="Arial" font-size="14">Filter:</text>
  
  <rect x="120" y="160" width="120" height="30" rx="3" ry="3" fill="#f5f5f5" stroke="#ccc" stroke-width="1"/>
  <text x="180" y="180" font-family="Arial" font-size="14" text-anchor="middle">All Users</text>
  
  <rect x="250" y="160" width="150" height="30" rx="3" ry="3" fill="#f5f5f5" stroke="#ccc" stroke-width="1"/>
  <text x="325" y="180" font-family="Arial" font-size="14" text-anchor="middle">Employee Only</text>
  
  <rect x="410" y="160" width="150" height="30" rx="3" ry="3" fill="#f5f5f5" stroke="#ccc" stroke-width="1"/>
  <text x="485" y="180" font-family="Arial" font-size="14" text-anchor="middle">Access Level</text>
  
  <rect x="590" y="160" width="150" height="30" rx="3" ry="3" fill="#1589EE" stroke="#1589EE" stroke-width="1"/>
  <text x="665" y="180" font-family="Arial" font-size="14" text-anchor="middle" fill="white">Manage Permissions</text>
  
  <!-- User Cards -->
  <!-- User Card 1 -->
  <rect x="50" y="210" width="220" height="120" rx="5" ry="5" fill="white" stroke="#ccc" stroke-width="1"/>
  <circle cx="85" cy="240" r="20" fill="#1589EE"/>
  <text x="85" y="246" font-family="Arial" font-size="18" text-anchor="middle" fill="white">JD</text>
  <text x="120" y="230" font-family="Arial" font-size="16" font-weight="bold">John Doe</text>
  <text x="120" y="250" font-family="Arial" font-size="14">Financial Advisor</text>
  
  <rect x="65" y="265" width="70" height="20" rx="10" ry="10" fill="#28a745"/>
  <text x="100" y="280" font-family="Arial" font-size="12" text-anchor="middle" fill="white">Employee</text>
  
  <rect x="140" y="265" width="110" height="20" rx="10" ry="10" fill="#0070D2"/>
  <text x="195" y="280" font-family="Arial" font-size="12" text-anchor="middle" fill="white">Admin Access</text>
  
  <rect x="70" y="295" width="80" height="25" rx="3" ry="3" fill="#f5f5f5" stroke="#ccc" stroke-width="1"/>
  <text x="110" y="312" font-family="Arial" font-size="12" text-anchor="middle">View</text>
  
  <rect x="160" y="295" width="80" height="25" rx="3" ry="3" fill="#f5f5f5" stroke="#ccc" stroke-width="1"/>
  <text x="200" y="312" font-family="Arial" font-size="12" text-anchor="middle">Edit</text>
  
  <!-- User Card 2 -->
  <rect x="290" y="210" width="220" height="120" rx="5" ry="5" fill="white" stroke="#ccc" stroke-width="1"/>
  <circle cx="325" cy="240" r="20" fill="#6c757d"/>
  <text x="325" y="246" font-family="Arial" font-size="18" text-anchor="middle" fill="white">JS</text>
  <text x="360" y="230" font-family="Arial" font-size="16" font-weight="bold">Jane Smith</text>
  <text x="360" y="250" font-family="Arial" font-size="14">Branch Manager</text>
  
  <rect x="305" y="265" width="70" height="20" rx="10" ry="10" fill="#6c757d"/>
  <text x="340" y="280" font-family="Arial" font-size="12" text-anchor="middle" fill="white">External</text>
  
  <rect x="380" y="265" width="110" height="20" rx="10" ry="10" fill="#1589EE"/>
  <text x="435" y="280" font-family="Arial" font-size="12" text-anchor="middle" fill="white">Mid Access</text>
  
  <rect x="310" y="295" width="80" height="25" rx="3" ry="3" fill="#f5f5f5" stroke="#ccc" stroke-width="1"/>
  <text x="350" y="312" font-family="Arial" font-size="12" text-anchor="middle">View</text>
  
  <rect x="400" y="295" width="80" height="25" rx="3" ry="3" fill="#f5f5f5" stroke="#ccc" stroke-width="1"/>
  <text x="440" y="312" font-family="Arial" font-size="12" text-anchor="middle">Edit</text>
  
  <!-- User Card 3 -->
  <rect x="530" y="210" width="220" height="120" rx="5" ry="5" fill="white" stroke="#ccc" stroke-width="1"/>
  <circle cx="565" cy="240" r="20" fill="#6c757d"/>
  <text x="565" y="246" font-family="Arial" font-size="18" text-anchor="middle" fill="white">RJ</text>
  <text x="600" y="230" font-family="Arial" font-size="16" font-weight="bold">Robert Johnson</text>
  <text x="600" y="250" font-family="Arial" font-size="14">Teller</text>
  
  <rect x="545" y="265" width="70" height="20" rx="10" ry="10" fill="#6c757d"/>
  <text x="580" y="280" font-family="Arial" font-size="12" text-anchor="middle" fill="white">External</text>
  
  <rect x="620" y="265" width="110" height="20" rx="10" ry="10" fill="#54698D"/>
  <text x="675" y="280" font-family="Arial" font-size="12" text-anchor="middle" fill="white">Base Access</text>
  
  <rect x="550" y="295" width="80" height="25" rx="3" ry="3" fill="#f5f5f5" stroke="#ccc" stroke-width="1"/>
  <text x="590" y="312" font-family="Arial" font-size="12" text-anchor="middle">View</text>
  
  <rect x="640" y="295" width="80" height="25" rx="3" ry="3" fill="#f5f5f5" stroke="#ccc" stroke-width="1"/>
  <text x="680" y="312" font-family="Arial" font-size="12" text-anchor="middle">Edit</text>
  
  <!-- User Card 4 -->
  <rect x="50" y="340" width="220" height="120" rx="5" ry="5" fill="white" stroke="#ccc" stroke-width="1"/>
  <circle cx="85" cy="370" r="20" fill="#28a745"/>
  <text x="85" y="376" font-family="Arial" font-size="18" text-anchor="middle" fill="white">AW</text>
  <text x="120" y="360" font-family="Arial" font-size="16" font-weight="bold">Alice Williams</text>
  <text x="120" y="380" font-family="Arial" font-size="14">Loan Officer</text>
  
  <rect x="65" y="395" width="70" height="20" rx="10" ry="10" fill="#28a745"/>
  <text x="100" y="410" font-family="Arial" font-size="12" text-anchor="middle" fill="white">Employee</text>
  
  <rect x="140" y="395" width="110" height="20" rx="10" ry="10" fill="#1589EE"/>
  <text x="195" y="410" font-family="Arial" font-size="12" text-anchor="middle" fill="white">Mid Access</text>
  
  <rect x="70" y="425" width="80" height="25" rx="3" ry="3" fill="#f5f5f5" stroke="#ccc" stroke-width="1"/>
  <text x="110" y="442" font-family="Arial" font-size="12" text-anchor="middle">View</text>
  
  <rect x="160" y="425" width="80" height="25" rx="3" ry="3" fill="#f5f5f5" stroke="#ccc" stroke-width="1"/>
  <text x="200" y="442" font-family="Arial" font-size="12" text-anchor="middle">Edit</text>
  
  <!-- User Card 5 -->
  <rect x="290" y="340" width="220" height="120" rx="5" ry="5" fill="white" stroke="#ccc" stroke-width="1"/>
  <circle cx="325" cy="370" r="20" fill="#28a745"/>
  <text x="325" y="376" font-family="Arial" font-size="18" text-anchor="middle" fill="white">MB</text>
  <text x="360" y="360" font-family="Arial" font-size="16" font-weight="bold">Michael Brown</text>
  <text x="360" y="380" font-family="Arial" font-size="14">Financial Planner</text>
  
  <rect x="305" y="395" width="70" height="20" rx="10" ry="10" fill="#28a745"/>
  <text x="340" y="410" font-family="Arial" font-size="12" text-anchor="middle" fill="white">Employee</text>
  
  <rect x="380" y="395" width="110" height="20" rx="10" ry="10" fill="#54698D"/>
  <text x="435" y="410" font-family="Arial" font-size="12" text-anchor="middle" fill="white">Base Access</text>
  
  <rect x="310" y="425" width="80" height="25" rx="3" ry="3" fill="#f5f5f5" stroke="#ccc" stroke-width="1"/>
  <text x="350" y="442" font-family="Arial" font-size="12" text-anchor="middle">View</text>
  
  <rect x="400" y="425" width="80" height="25" rx="3" ry="3" fill="#f5f5f5" stroke="#ccc" stroke-width="1"/>
  <text x="440" y="442" font-family="Arial" font-size="12" text-anchor="middle">Edit</text>
  
  <!-- Pagination -->
  <rect x="50" y="470" width="700" height="30" rx="5" ry="5" fill="white" stroke="#ccc" stroke-width="1"/>
  <text x="400" y="490" font-family="Arial" font-size="14" text-anchor="middle">Page 1 of 3</text>
  
  <rect x="300" y="475" width="30" height="20" rx="3" ry="3" fill="#f5f5f5" stroke="#ccc" stroke-width="1"/>
  <text x="315" y="490" font-family="Arial" font-size="14" text-anchor="middle">←</text>
  
  <rect x="340" y="475" width="30" height="20" rx="3" ry="3" fill="#0070D2" stroke="#0070D2" stroke-width="1"/>
  <text x="355" y="490" font-family="Arial" font-size="14" text-anchor="middle" fill="white">1</text>
  
  <rect x="380" y="475" width="30" height="20" rx="3" ry="3" fill="#f5f5f5" stroke="#ccc" stroke-width="1"/>
  <text x="395" y="490" font-family="Arial" font-size="14" text-anchor="middle">2</text>
  
  <rect x="420" y="475" width="30" height="20" rx="3" ry="3" fill="#f5f5f5" stroke="#ccc" stroke-width="1"/>
  <text x="435" y="490" font-family="Arial" font-size="14" text-anchor="middle">3</text>
  
  <rect x="460" y="475" width="30" height="20" rx="3" ry="3" fill="#f5f5f5" stroke="#ccc" stroke-width="1"/>
  <text x="475" y="490" font-family="Arial" font-size="14" text-anchor="middle">→</text>
</svg>
